# xmcd
#
# Track frame offsets: 
#        183
#        61408
#        124233
#        160883
#        228308
#        248258
#
# Disc length: 4288 seconds
#
# Revision: 2
# Processed by: cddbd v1.5.1PL0 Copyright (c) Steve Scherf et al.
# Submitted via: ExactAudioCopy v0.95a5
#
DISCID=4310be06
DTITLE=Phish - A Phishy Story
DYEAR=1900
DGENRE=Rock
TTITLE0=Intro -> Wilson -> Brother
TTITLE1=The Landlady -> Lizards -> Horn
TTITLE2=Rift
TTITLE3=Language Instructions -> Possum
TTITLE4=Fire
TTITLE5=You Enjoy Myself (with Santana)
EXTD=
EXTT0=
EXTT1=
EXTT2=
EXTT3=
EXTT4=
EXTT5=
PLAYORDER=
